<?xml version="1.0" encoding="UTF-8" standalone="yes"?>
<!DOCTYPE svg PUBLIC "-//W3C//DTD SVG 1.0//EN" "http://www.w3.org/TR/2001/REC-SVG-20010904/DTD/svg10.dtd">
<svg height="600" width="600" xmlns="http://www.w3.org/2000/svg" xmlns:svg="http://www.w3.org/2000/svg" xmlns:xlink="http://www.w3.org/1999/xlink">
	<g id="n2146697">
		<g id="line5112662" />
		<g id="axis7184631" />
		<g id="linen5751026">
			<line style="fill-opacity: 0.5; fill: red; stroke: red" x1="35" x2="82.8729603729603" y1="219.78182646322" y2="222.183785014803" />
			<line style="stroke: red; fill: red; fill-opacity: 0.5" x1="82.8729603729603" x2="98.8212545030727" y1="222.183785014803" y2="343.317029150535" />
			<line style="fill-opacity: 0.5; stroke: red; fill: red" x1="98.8212545030727" x2="99.9864907819453" y1="343.317029150535" y2="353.362104304259" />
			<line style="fill-opacity: 0.5; stroke: red; fill: red" x1="99.9864907819453" x2="115.148601398601" y1="353.362104304259" y2="367.616943748577" />
			<line style="stroke: red; fill: red; fill-opacity: 0.5" x1="115.148601398601" x2="123.543918203009" y1="367.616943748577" y2="294.568435436119" />
			<line style="fill-opacity: 0.5; stroke: red; fill: red" x1="123.543918203009" x2="131.110934520025" y1="294.568435436119" y2="323.919403324983" />
			<line style="fill-opacity: 0.5; stroke: red; fill: red" x1="131.110934520025" x2="131.405753337571" y1="323.919403324983" y2="175.840469141426" />
			<line style="fill-opacity: 0.5; fill: red; stroke: red" x1="131.405753337571" x2="139.955499046408" y1="175.840469141426" y2="317.874977226144" />
			<line style="stroke: red; fill: red; fill-opacity: 0.5" x1="139.955499046408" x2="140.531097690189" y1="317.874977226144" y2="257.736392621271" />
			<line style="fill-opacity: 0.5; stroke: red; fill: red" x1="140.531097690189" x2="144.363742318288" y1="257.736392621271" y2="208.372523343202" />
			<line style="fill: red; stroke: red; fill-opacity: 0.5" x1="144.363742318288" x2="149.403740199195" y1="208.372523343202" y2="316.274476201321" />
			<line style="fill-opacity: 0.5; stroke: red; fill: red" x1="149.403740199195" x2="149.431818181818" y1="316.274476201321" y2="344.663151901617" />
			<line style="fill: red; stroke: red; fill-opacity: 0.5" x1="149.431818181818" x2="164.13344988345" y1="344.663151901617" y2="278.816898200865" />
			<line style="fill-opacity: 0.5; stroke: red; fill: red" x1="164.13344988345" x2="180.848272939182" y1="278.816898200865" y2="328.966835572762" />
			<line style="fill-opacity: 0.5; stroke: red; fill: red" x1="180.848272939182" x2="180.978835558381" y1="328.966835572762" y2="322.781792302437" />
			<line style="fill-opacity: 0.5; stroke: red; fill: red" x1="180.978835558381" x2="187.963233735961" y1="322.781792302437" y2="371.059952174903" />
			<line style="fill-opacity: 0.5; stroke: red; fill: red" x1="187.963233735961" x2="195.962650985378" y1="371.059952174903" y2="264.788373946709" />
			<line style="fill-opacity: 0.5; fill: red; stroke: red" x1="195.962650985378" x2="198.988053613054" y1="264.788373946709" y2="280.503700751537" />
			<line style="fill-opacity: 0.5; fill: red; stroke: red" x1="198.988053613054" x2="202.645210849756" y1="280.503700751537" y2="379.946595308586" />
			<line style="fill: red; stroke: red; fill-opacity: 0.5" x1="202.645210849756" x2="208.273442466624" y1="379.946595308586" y2="334.684492712366" />
			<line style="fill-opacity: 0.5; stroke: red; fill: red" x1="208.273442466624" x2="212.949830472558" y1="334.684492712366" y2="339.005573901161" />
			<line style="stroke: red; fill: red; fill-opacity: 0.5" x1="212.949830472558" x2="214.393038779402" y1="339.005573901161" y2="287.679401047597" />
			<line style="fill: red; stroke: red; fill-opacity: 0.5" x1="214.393038779402" x2="218.253761390125" y1="287.679401047597" y2="302.43515144614" />
			<line style="fill-opacity: 0.5; stroke: red; fill: red" x1="218.253761390125" x2="220.147621318076" y1="302.43515144614" y2="326.506638578911" />
			<line style="stroke: red; fill: red; fill-opacity: 0.5" x1="220.147621318076" x2="233.762635092181" y1="326.506638578911" y2="293.089842860396" />
			<line style="fill-opacity: 0.5; stroke: red; fill: red" x1="233.762635092181" x2="237.512449671541" y1="293.089842860396" y2="307.430078569802" />
			<line style="fill-opacity: 0.5; fill: red; stroke: red" x1="237.512449671541" x2="240.964637635092" y1="307.430078569802" y2="353.854566158051" />
			<line style="fill: red; stroke: red; fill-opacity: 0.5" x1="240.964637635092" x2="241.235590167408" y1="353.854566158051" y2="414.551696652243" />
			<line style="fill: red; stroke: red; fill-opacity: 0.5" x1="241.235590167408" x2="254.4041640178" y1="414.551696652243" y2="349.184024140287" />
			<line style="fill-opacity: 0.5; stroke: red; fill: red" x1="254.4041640178" x2="254.717233524052" y1="349.184024140287" y2="468.628956957413" />
			<line style="fill-opacity: 0.5; stroke: red; fill: red" x1="254.717233524052" x2="257.328485908031" y1="468.628956957413" y2="311.985350717376" />
			<line style="fill: red; stroke: red; fill-opacity: 0.5" x1="257.328485908031" x2="258.00937698665" y1="311.985350717376" y2="292.857492598497" />
			<line style="fill: red; stroke: red; fill-opacity: 0.5" x1="258.00937698665" x2="259.02860775588" y1="292.857492598497" y2="428.209063994534" />
			<line style="fill-opacity: 0.5; fill: red; stroke: red" x1="259.02860775588" x2="273.245894257258" y1="428.209063994534" y2="241.686119335003" />
			<line style="stroke: red; fill: red; fill-opacity: 0.5" x1="273.245894257258" x2="278.37574168256" y1="241.686119335003" y2="323.42120815304" />
			<line style="fill-opacity: 0.5; stroke: red; fill: red" x1="278.37574168256" x2="278.580710955711" y1="323.42120815304" y2="358.401389205192" />
			<line style="fill-opacity: 0.5; stroke: red; fill: red" x1="278.580710955711" x2="279.615384615385" y1="358.401389205192" y2="387.273172398087" />
			<line style="fill-opacity: 0.5; fill: red; stroke: red" x1="279.615384615385" x2="281.377278025005" y1="387.273172398087" y2="402.683728080164" />
			<line style="fill: red; stroke: red; fill-opacity: 0.5" x1="281.377278025005" x2="289.926742954016" y1="402.683728080164" y2="260.029719881576" />
			<line style="fill-opacity: 0.5; stroke: red; fill: red" x1="289.926742954016" x2="299.81131595677" y1="260.029719881576" y2="335.499136870872" />
			<line style="fill-opacity: 0.5; fill: red; stroke: red" x1="299.81131595677" x2="300.975569506251" y1="335.499136870872" y2="335.014098155318" />
			<line style="fill-opacity: 0.5; fill: red; stroke: red" x1="300.975569506251" x2="302.097706081797" y1="335.014098155318" y2="367.982065588704" />
			<line style="fill: red; stroke: red; fill-opacity: 0.5" x1="302.097706081797" x2="303.969524793388" y1="367.982065588704" y2="352.472232976543" />
			<line style="fill-opacity: 0.5; stroke: red; fill: red" x1="303.969524793388" x2="304.60689499894" y1="352.472232976543" y2="337.819531427921" />
			<line style="fill: red; stroke: red; fill-opacity: 0.5" x1="304.60689499894" x2="306.230785123967" y1="337.819531427921" y2="335.059210316557" />
			<line style="stroke: red; fill: red; fill-opacity: 0.5" x1="306.230785123967" x2="307.897915342233" y1="335.059210316557" y2="356.987975404236" />
			<line style="fill-opacity: 0.5; stroke: red; fill: red" x1="307.897915342233" x2="313.074512608603" y1="356.987975404236" y2="282.036608972899" />
			<line style="stroke: red; fill: red; fill-opacity: 0.5" x1="313.074512608603" x2="317.355001059546" y1="282.036608972899" y2="323.833101799135" />
			<line style="fill: red; stroke: red; fill-opacity: 0.5" x1="317.355001059546" x2="318.743457300275" y1="323.833101799135" y2="367.381575950808" />
			<line style="stroke: red; fill: red; fill-opacity: 0.5" x1="318.743457300275" x2="321.607411527866" y1="367.381575950808" y2="338.471500227739" />
			<line style="fill-opacity: 0.5; stroke: red; fill: red" x1="321.607411527866" x2="321.926096630642" y1="338.471500227739" y2="325.807777271692" />
			<line style="fill-opacity: 0.5; fill: red; stroke: red" x1="321.926096630642" x2="330.986861623225" y1="325.807777271692" y2="287.196595308586" />
			<line style="fill: red; stroke: red; fill-opacity: 0.5" x1="330.986861623225" x2="332.205446069082" y1="287.196595308586" y2="280.141596447279" />
			<line style="fill-opacity: 0.5; stroke: red; fill: red" x1="332.205446069082" x2="342.57745285018" y1="280.141596447279" y2="325.900415622865" />
			<line style="fill-opacity: 0.5; fill: red; stroke: red" x1="342.57745285018" x2="344.329518965883" y1="325.900415622865" y2="327.166271919836" />
			<line style="fill: red; stroke: red; fill-opacity: 0.5" x1="344.329518965883" x2="353.541905064632" y1="327.166271919836" y2="291.82549533136" />
			<line style="fill-opacity: 0.5; fill: red; stroke: red" x1="353.541905064632" x2="355.472266369994" y1="291.82549533136" y2="343.629344112958" />
			<line style="fill-opacity: 0.5; stroke: red; fill: red" x1="355.472266369994" x2="360.625980080525" y1="343.629344112958" y2="333.185441243452" />
			<line style="fill-opacity: 0.5; stroke: red; fill: red" x1="360.625980080525" x2="367.252383979657" y1="333.185441243452" y2="301.813539057162" />
			<line style="stroke: red; fill: red; fill-opacity: 0.5" x1="367.252383979657" x2="372.705128205128" y1="301.813539057162" y2="331.195285811888" />
			<line style="stroke: red; fill: red; fill-opacity: 0.5" x1="372.705128205128" x2="376.619198982835" y1="331.195285811888" y2="331.510920063767" />
			<line style="fill-opacity: 0.5; stroke: red; fill: red" x1="376.619198982835" x2="378.187354312354" y1="331.510920063767" y2="359.535379184696" />
			<line style="stroke: red; fill: red; fill-opacity: 0.5" x1="378.187354312354" x2="378.906150667514" y1="359.535379184696" y2="353.712741972216" />
			<line style="stroke: red; fill: red; fill-opacity: 0.5" x1="378.906150667514" x2="379.754105742742" y1="353.712741972216" y2="307.635874516056" />
			<line style="stroke: red; fill: red; fill-opacity: 0.5" x1="379.754105742742" x2="382.748622589532" y1="307.635874516056" y2="310.142541562287" />
			<line style="fill: red; stroke: red; fill-opacity: 0.5" x1="382.748622589532" x2="390.190691883874" y1="310.142541562287" y2="331.690463447962" />
			<line style="stroke: red; fill: red; fill-opacity: 0.5" x1="390.190691883874" x2="396.372059758423" y1="331.690463447962" y2="325.482185151446" />
			<line style="fill: red; stroke: red; fill-opacity: 0.5" x1="396.372059758423" x2="398.411925196016" y1="325.482185151446" y2="337.867329196083" />
			<line style="fill-opacity: 0.5; stroke: red; fill: red" x1="398.411925196016" x2="399.516793812248" y1="337.867329196083" y2="321.090463447962" />
			<line style="stroke: red; fill: red; fill-opacity: 0.5" x1="399.516793812248" x2="401.902018436109" y1="321.090463447962" y2="328.408289683443" />
			<line style="fill-opacity: 0.5; stroke: red; fill: red" x1="401.902018436109" x2="406.362205975842" y1="328.408289683443" y2="353.575745843771" />
			<line style="fill: red; stroke: red; fill-opacity: 0.5" x1="406.362205975842" x2="408.122695486332" y1="353.575745843771" y2="435.454167615577" />
			<line style="fill-opacity: 0.5; fill: red; stroke: red" x1="408.122695486332" x2="417.77590591227" y1="435.454167615577" y2="263.861990434981" />
			<line style="fill: red; stroke: red; fill-opacity: 0.5" x1="417.77590591227" x2="419.815771349862" y1="263.861990434981" y2="351.07782965156" />
			<line style="fill: red; stroke: red; fill-opacity: 0.5" x1="419.815771349862" x2="426.707512184785" y1="351.07782965156" y2="329.491886813938" />
			<line style="fill-opacity: 0.5; fill: red; stroke: red" x1="426.707512184785" x2="427.092180546726" y1="329.491886813938" y2="404.624003643817" />
			<line style="fill-opacity: 0.5; stroke: red; fill: red" x1="427.092180546726" x2="440.165289256198" y1="404.624003643817" y2="335.728931279891" />
			<line style="stroke: red; fill: red; fill-opacity: 0.5" x1="440.165289256198" x2="441.133979656707" y1="335.728931279891" y2="348.803814620815" />
			<line style="fill-opacity: 0.5; fill: red; stroke: red" x1="441.133979656707" x2="448.476372112736" y1="348.803814620815" y2="322.926935777727" />
			<line style="fill-opacity: 0.5; fill: red; stroke: red" x1="448.476372112736" x2="451.494755244755" y1="322.926935777727" y2="204.980813026645" />
			<line style="fill: red; stroke: red; fill-opacity: 0.5" x1="451.494755244755" x2="468.636363636364" y1="204.980813026645" y2="35" />
			<line style="fill-opacity: 0.5; stroke: red; fill: red" x1="468.636363636364" x2="469.464664123755" y1="35" y2="565" />
			<line style="stroke: red; fill: red; fill-opacity: 0.5" x1="469.464664123755" x2="474.743324856961" y1="565" y2="325.289666363015" />
			<line style="stroke: red; fill: red; fill-opacity: 0.5" x1="474.743324856961" x2="480.316804407713" y1="325.289666363015" y2="332.797295604646" />
			<line style="fill: red; stroke: red; fill-opacity: 0.5" x1="480.316804407713" x2="493.050169527442" y1="332.797295604646" y2="392.243053974038" />
			<line style="fill: red; stroke: red; fill-opacity: 0.5" x1="493.050169527442" x2="495.521031998305" y1="392.243053974038" y2="324.321942609884" />
			<line style="fill: red; stroke: red; fill-opacity: 0.5" x1="495.521031998305" x2="509.910998092816" y1="324.321942609884" y2="324.408847642906" />
			<line style="fill: red; stroke: red; fill-opacity: 0.5" x1="509.910998092816" x2="514.038461538461" y1="324.408847642906" y2="311.223724664086" />
			<line style="fill: red; stroke: red; fill-opacity: 0.5" x1="514.038461538461" x2="563.792646747192" y1="311.223724664086" y2="292.87559781371" />
			<line style="fill: red; stroke: red; fill-opacity: 0.5" x1="563.792646747192" x2="565" y1="292.87559781371" y2="391.069232521066" />
		</g>
		<g id="axisn5293976">
			<line style="stroke: gray; stroke-width: 2" x1="35" x2="565" y1="565" y2="565" />
			<line style="stroke-width: 2; stroke: gray" x1="35" x2="35" y1="35" y2="565" />
			<line style="stroke: gray; stroke-width: 2" x1="35" x2="35" y1="565" y2="569.375" />
			<text transform="rotate(90,35,573.75)" x="35" y="573.75">-1</text>
			<text transform="rotate(90,-298.299692731511,573.75)" x="-298.299692731511" y="573.75"></text>
			<line style="stroke-width: 2; stroke: gray" x1="175.389913117186" x2="175.389913117186" y1="565" y2="569.375" />
			<text transform="rotate(90,175.389913117186,573.75)" x="175.389913117186" y="573.75">0</text>
			<text transform="rotate(90,-157.909779614325,573.75)" x="-157.909779614325" y="573.75"></text>
			<line style="stroke-width: 2; stroke: gray" x1="315.779826234372" x2="315.779826234372" y1="565" y2="569.375" />
			<text transform="rotate(90,315.779826234372,573.75)" x="315.779826234372" y="573.75">1</text>
			<text transform="rotate(90,-17.5198664971392,573.75)" x="-17.5198664971392" y="573.75"></text>
			<line style="stroke-width: 2; stroke: gray" x1="456.169739351557" x2="456.169739351557" y1="565" y2="569.375" />
			<text transform="rotate(90,456.169739351557,573.75)" x="456.169739351557" y="573.75"></text>
			<text transform="rotate(90,122.870046620047,573.75)" x="122.870046620047" y="573.75"></text>
			<line style="stroke: gray; stroke-width: 2" x1="35" x2="30.625" y1="565" y2="565" />
			<text x="0" y="565">-7</text>
			<text x="-1101.428268701" y="565"></text>
			<line style="stroke: gray; stroke-width: 2" x1="35" x2="30.625" y1="534.824641311774" y2="534.824641311774" />
			<text x="0" y="534.824641311774">-6</text>
			<text x="-961.03835558381" y="534.824641311774"></text>
			<line style="stroke-width: 2; stroke: gray" x1="35" x2="30.625" y1="504.649282623548" y2="504.649282623548" />
			<text x="0" y="504.649282623548">-5</text>
			<text x="-820.648442466624" y="504.649282623548"></text>
			<line style="stroke-width: 2; stroke: gray" x1="35" x2="30.625" y1="474.473923935322" y2="474.473923935322" />
			<text x="0" y="474.473923935322">-4</text>
			<text x="-680.258529349439" y="474.473923935322"></text>
			<line style="stroke-width: 2; stroke: gray" x1="35" x2="30.625" y1="444.298565247096" y2="444.298565247096" />
			<text x="0" y="444.298565247096">-3</text>
			<text x="-539.868616232253" y="444.298565247096"></text>
			<line style="stroke: gray; stroke-width: 2" x1="35" x2="30.625" y1="414.12320655887" y2="414.12320655887" />
			<text x="0" y="414.12320655887">-2</text>
			<text x="-399.478703115067" y="414.12320655887"></text>
			<line style="stroke: gray; stroke-width: 2" x1="35" x2="30.625" y1="383.947847870645" y2="383.947847870645" />
			<text x="0" y="383.947847870645">-1</text>
			<text x="-259.088789997881" y="383.947847870645"></text>
			<line style="stroke-width: 2; stroke: gray" x1="35" x2="30.625" y1="353.772489182419" y2="353.772489182419" />
			<text x="0" y="353.772489182419">0</text>
			<text x="-118.698876880695" y="353.772489182419"></text>
			<line style="stroke-width: 2; stroke: gray" x1="35" x2="30.625" y1="323.597130494193" y2="323.597130494193" />
			<text x="0" y="323.597130494193">1</text>
			<text x="21.6910362364908" y="323.597130494193"></text>
			<line style="stroke-width: 2; stroke: gray" x1="35" x2="30.625" y1="293.421771805967" y2="293.421771805967" />
			<text x="0" y="293.421771805967">2</text>
			<text x="162.080949353677" y="293.421771805967"></text>
			<line style="stroke-width: 2; stroke: gray" x1="35" x2="30.625" y1="263.246413117741" y2="263.246413117741" />
			<text x="0" y="263.246413117741">3</text>
			<text x="302.470862470862" y="263.246413117741"></text>
			<line style="stroke-width: 2; stroke: gray" x1="35" x2="30.625" y1="233.071054429515" y2="233.071054429515" />
			<text x="0" y="233.071054429515">4</text>
			<text x="442.860775588048" y="233.071054429515"></text>
			<line style="stroke-width: 2; stroke: gray" x1="35" x2="30.625" y1="202.895695741289" y2="202.895695741289" />
			<text x="0" y="202.895695741289">5</text>
			<text x="583.250688705234" y="202.895695741289"></text>
			<line style="stroke: gray; stroke-width: 2" x1="35" x2="30.625" y1="172.720337053063" y2="172.720337053063" />
			<text x="0" y="172.720337053063">6</text>
			<text x="723.64060182242" y="172.720337053063"></text>
			<line style="stroke: gray; stroke-width: 2" x1="35" x2="30.625" y1="142.544978364837" y2="142.544978364837" />
			<text x="0" y="142.544978364837">7</text>
			<text x="864.030514939606" y="142.544978364837"></text>
			<line style="stroke-width: 2; stroke: gray" x1="35" x2="30.625" y1="112.369619676611" y2="112.369619676611" />
			<text x="0" y="112.369619676611">8</text>
			<text x="1004.42042805679" y="112.369619676611"></text>
			<line style="stroke-width: 2; stroke: gray" x1="35" x2="30.625" y1="82.1942609883853" y2="82.1942609883853" />
			<text x="0" y="82.1942609883853">9</text>
			<text x="1144.81034117398" y="82.1942609883853"></text>
			<line style="stroke: gray; stroke-width: 2" x1="35" x2="30.625" y1="52.0189023001594" y2="52.0189023001594" />
			<text x="0" y="52.0189023001594"></text>
			<text x="1285.20025429116" y="52.0189023001594"></text>
		</g>
	</g>
	<!-- 
	Generated using the Perl SVG Module V2.59
	by Ronan Oger
	Info: http://www.roitsystems.com/
 -->
</svg>