<?xml version="1.0" encoding="UTF-8" standalone="yes"?>
<!DOCTYPE svg PUBLIC "-//W3C//DTD SVG 1.0//EN" "http://www.w3.org/TR/2001/REC-SVG-20010904/DTD/svg10.dtd">
<svg height="600" width="600" xmlns="http://www.w3.org/2000/svg" xmlns:xlink="http://www.w3.org/1999/xlink">
	<g id="n9696041" />
	<g id="n4213149">
		<g id="axis0643339" />
		<g id="axisn8383543">
			<line style="stroke: palegray" x1="35" x2="565" y1="565" y2="565" />
			<line style="stroke: palegray" x1="35" x2="35" y1="35" y2="565" />
			<line style="stroke: palegray" x1="35" x2="35" y1="565" y2="569.375" />
			<text transform="rotate(90,35,573.75)" x="35" y="573.75">0
			</text>
			<text transform="rotate(90,10.9090909090909,573.75)" x="10.9090909090909" y="573.75">
			</text>
			<line style="stroke: palegray" x1="83.1818181818182" x2="83.1818181818182" y1="565" y2="569.375" />
			<text transform="rotate(90,83.1818181818182,573.75)" x="83.1818181818182" y="573.75">1
			</text>
			<text transform="rotate(90,59.0909090909091,573.75)" x="59.0909090909091" y="573.75">
			</text>
			<line style="stroke: palegray" x1="131.363636363636" x2="131.363636363636" y1="565" y2="569.375" />
			<text transform="rotate(90,131.363636363636,573.75)" x="131.363636363636" y="573.75">2
			</text>
			<text transform="rotate(90,107.272727272727,573.75)" x="107.272727272727" y="573.75">
			</text>
			<line style="stroke: palegray" x1="179.545454545455" x2="179.545454545455" y1="565" y2="569.375" />
			<text transform="rotate(90,179.545454545455,573.75)" x="179.545454545455" y="573.75">3
			</text>
			<text transform="rotate(90,155.454545454545,573.75)" x="155.454545454545" y="573.75">
			</text>
			<line style="stroke: palegray" x1="227.727272727273" x2="227.727272727273" y1="565" y2="569.375" />
			<text transform="rotate(90,227.727272727273,573.75)" x="227.727272727273" y="573.75">4
			</text>
			<text transform="rotate(90,203.636363636364,573.75)" x="203.636363636364" y="573.75">
			</text>
			<line style="stroke: palegray" x1="275.909090909091" x2="275.909090909091" y1="565" y2="569.375" />
			<text transform="rotate(90,275.909090909091,573.75)" x="275.909090909091" y="573.75">5
			</text>
			<text transform="rotate(90,251.818181818182,573.75)" x="251.818181818182" y="573.75">
			</text>
			<line style="stroke: palegray" x1="324.090909090909" x2="324.090909090909" y1="565" y2="569.375" />
			<text transform="rotate(90,324.090909090909,573.75)" x="324.090909090909" y="573.75">6
			</text>
			<text transform="rotate(90,300,573.75)" x="300" y="573.75">
			</text>
			<line style="stroke: palegray" x1="372.272727272727" x2="372.272727272727" y1="565" y2="569.375" />
			<text transform="rotate(90,372.272727272727,573.75)" x="372.272727272727" y="573.75">7
			</text>
			<text transform="rotate(90,348.181818181818,573.75)" x="348.181818181818" y="573.75">
			</text>
			<line style="stroke: palegray" x1="420.454545454545" x2="420.454545454545" y1="565" y2="569.375" />
			<text transform="rotate(90,420.454545454545,573.75)" x="420.454545454545" y="573.75">8
			</text>
			<text transform="rotate(90,396.363636363636,573.75)" x="396.363636363636" y="573.75">
			</text>
			<line style="stroke: palegray" x1="468.636363636364" x2="468.636363636364" y1="565" y2="569.375" />
			<text transform="rotate(90,468.636363636364,573.75)" x="468.636363636364" y="573.75">9
			</text>
			<text transform="rotate(90,444.545454545455,573.75)" x="444.545454545455" y="573.75">
			</text>
			<line style="stroke: palegray" x1="516.818181818182" x2="516.818181818182" y1="565" y2="569.375" />
			<text transform="rotate(90,516.818181818182,573.75)" x="516.818181818182" y="573.75">10
			</text>
			<text transform="rotate(90,492.727272727273,573.75)" x="492.727272727273" y="573.75">
			</text>
			<line style="stroke: palegray" x1="565" x2="565" y1="565" y2="569.375" />
			<text transform="rotate(90,565,573.75)" x="565" y="573.75">11
			</text>
			<text transform="rotate(90,540.909090909091,573.75)" x="540.909090909091" y="573.75">
			</text>
			<line style="stroke: palegray" x1="35" x2="30.625" y1="565" y2="565" />
			<text x="0" y="565">0
			</text>
			<text x="10.9090909090909" y="565">
			</text>
			<line style="stroke: palegray" x1="35" x2="30.625" y1="516.818181818182" y2="516.818181818182" />
			<text x="0" y="516.818181818182">1
			</text>
			<text x="59.0909090909091" y="516.818181818182">
			</text>
			<line style="stroke: palegray" x1="35" x2="30.625" y1="468.636363636364" y2="468.636363636364" />
			<text x="0" y="468.636363636364">2
			</text>
			<text x="107.272727272727" y="468.636363636364">
			</text>
			<line style="stroke: palegray" x1="35" x2="30.625" y1="420.454545454545" y2="420.454545454545" />
			<text x="0" y="420.454545454545">3
			</text>
			<text x="155.454545454545" y="420.454545454545">
			</text>
			<line style="stroke: palegray" x1="35" x2="30.625" y1="372.272727272727" y2="372.272727272727" />
			<text x="0" y="372.272727272727">4
			</text>
			<text x="203.636363636364" y="372.272727272727">
			</text>
			<line style="stroke: palegray" x1="35" x2="30.625" y1="324.090909090909" y2="324.090909090909" />
			<text x="0" y="324.090909090909">5
			</text>
			<text x="251.818181818182" y="324.090909090909">
			</text>
			<line style="stroke: palegray" x1="35" x2="30.625" y1="275.909090909091" y2="275.909090909091" />
			<text x="0" y="275.909090909091">6
			</text>
			<text x="300" y="275.909090909091">
			</text>
			<line style="stroke: palegray" x1="35" x2="30.625" y1="227.727272727273" y2="227.727272727273" />
			<text x="0" y="227.727272727273">7
			</text>
			<text x="348.181818181818" y="227.727272727273">
			</text>
			<line style="stroke: palegray" x1="35" x2="30.625" y1="179.545454545455" y2="179.545454545455" />
			<text x="0" y="179.545454545455">8
			</text>
			<text x="396.363636363636" y="179.545454545455">
			</text>
			<line style="stroke: palegray" x1="35" x2="30.625" y1="131.363636363636" y2="131.363636363636" />
			<text x="0" y="131.363636363636">9
			</text>
			<text x="444.545454545455" y="131.363636363636">
			</text>
			<line style="stroke: palegray" x1="35" x2="30.625" y1="83.1818181818182" y2="83.1818181818182" />
			<text x="0" y="83.1818181818182">10
			</text>
			<text x="492.727272727273" y="83.1818181818182">
			</text>
			<line style="stroke: palegray" x1="35" x2="30.625" y1="35" y2="35" />
			<text x="0" y="35">11
			</text>
			<text x="540.909090909091" y="35">
			</text>
		</g>
	</g>
	<g id="n7008162">
		<g id="line7935000" />
		<g id="linen0166511">
			<line style="fill: palegray; fill-opacity: 0.5; stroke: palegray" x1="35" x2="565" y1="565" y2="35" />
		</g>
	</g>
	<g id="n2095017">
		<g id="line0075422" />
		<g id="linen1233388">
			<line style="stroke: yellow" x1="83.1818181818182" x2="131.363636363636" y1="530.806451612903" y2="513.709677419355" />
			<line style="stroke: yellow" x1="131.363636363636" x2="179.545454545455" y1="513.709677419355" y2="479.516129032258" />
			<line style="stroke: yellow" x1="179.545454545455" x2="227.727272727273" y1="479.516129032258" y2="445.322580645161" />
			<line style="stroke: yellow" x1="227.727272727273" x2="275.909090909091" y1="445.322580645161" y2="376.935483870968" />
			<line style="stroke: yellow" x1="275.909090909091" x2="324.090909090909" y1="376.935483870968" y2="342.741935483871" />
			<line style="stroke: yellow" x1="324.090909090909" x2="372.272727272727" y1="342.741935483871" y2="274.354838709677" />
			<line style="stroke: yellow" x1="372.272727272727" x2="420.454545454545" y1="274.354838709677" y2="240.161290322581" />
			<line style="stroke: yellow" x1="420.454545454545" x2="468.636363636364" y1="240.161290322581" y2="171.774193548387" />
			<line style="stroke: yellow" x1="468.636363636364" x2="516.818181818182" y1="171.774193548387" y2="69.1935483870968" />
			<line style="stroke: yellow" x1="516.818181818182" x2="565" y1="69.1935483870968" y2="35" />
		</g>
	</g>
	<g id="n5348809">
		<g id="scatter6700568" />
		<g id="scattern3358178">
			<circle cx="83.1818181818182" cy="530.806451612903" r="1" style="stroke: blue" />
			<circle cx="131.363636363636" cy="513.709677419355" r="1" style="stroke: blue" />
			<circle cx="179.545454545455" cy="479.516129032258" r="1" style="stroke: blue" />
			<circle cx="227.727272727273" cy="445.322580645161" r="1" style="stroke: blue" />
			<circle cx="275.909090909091" cy="376.935483870968" r="1" style="stroke: blue" />
			<circle cx="324.090909090909" cy="342.741935483871" r="1" style="stroke: blue" />
			<circle cx="372.272727272727" cy="274.354838709677" r="1" style="stroke: blue" />
			<circle cx="420.454545454545" cy="240.161290322581" r="1" style="stroke: blue" />
			<circle cx="468.636363636364" cy="171.774193548387" r="1" style="stroke: blue" />
			<circle cx="516.818181818182" cy="69.1935483870968" r="1" style="stroke: blue" />
			<circle cx="565" cy="35" r="1" style="stroke: blue" />
		</g>
	</g><!-- 
	Generated using the Perl SVG Module V2.33
	by Ronan Oger
	Info: http://www.roasp.com/
 -->
</svg>