<?xml version="1.0" encoding="UTF-8" standalone="yes"?>
<!DOCTYPE svg PUBLIC "-//W3C//DTD SVG 1.0//EN" "http://www.w3.org/TR/2001/REC-SVG-20010904/DTD/svg10.dtd">
<svg height="600" width="600" xmlns="http://www.w3.org/2000/svg" xmlns:svg="http://www.w3.org/2000/svg" xmlns:xlink="http://www.w3.org/1999/xlink">
	<g id="n7009725">
		<g id="scatter2978938" />
		<g id="axis6529425" />
		<g id="scattern8554409">
			<circle cx="35" cy="565" r="3" style="fill: red; fill-opacity: 0.5; stroke: red" />
			<circle cx="40.9550561797753" cy="545.37037037037" r="3" style="fill: red; fill-opacity: 0.5; stroke: red" />
			<circle cx="46.9101123595506" cy="506.111111111111" r="3" style="fill: red; fill-opacity: 0.5; stroke: red" />
			<circle cx="52.8651685393258" cy="466.851851851852" r="3" style="fill: red; fill-opacity: 0.5; stroke: red" />
			<circle cx="58.8202247191011" cy="388.333333333333" r="3" style="fill: red; fill-opacity: 0.5; stroke: red" />
			<circle cx="64.7752808988764" cy="349.074074074074" r="3" style="fill: red; fill-opacity: 0.5; stroke: red" />
			<circle cx="70.7303370786517" cy="270.555555555556" r="3" style="fill: red; fill-opacity: 0.5; stroke: red" />
			<circle cx="76.685393258427" cy="231.296296296296" r="3" style="fill: red; fill-opacity: 0.5; stroke: red" />
			<circle cx="82.6404494382022" cy="152.777777777778" r="3" style="fill: red; fill-opacity: 0.5; stroke: red" />
			<circle cx="565" cy="35" r="3" style="fill: red; fill-opacity: 0.5; stroke: red" />
		</g>
		<g id="axisn4866273">
			<line style="stroke: gray; stroke-width: 2" x1="35" x2="565" y1="565" y2="565" />
			<line style="stroke: gray; stroke-width: 2" x1="35" x2="35" y1="35" y2="565" />
			<line style="stroke: gray; stroke-width: 2" x1="35" x2="35" y1="565" y2="569.375" />
			<text transform="rotate(90,35,573.75)" x="35" y="573.75">1</text>
			<text transform="rotate(90,37.9775280898876,573.75)" x="37.9775280898876" y="573.75"></text>
			<line style="stroke: gray; stroke-width: 2" x1="52.8651685393258" x2="52.8651685393258" y1="565" y2="569.375" />
			<text transform="rotate(90,52.8651685393258,573.75)" x="52.8651685393258" y="573.75">3</text>
			<text transform="rotate(90,55.8426966292135,573.75)" x="55.8426966292135" y="573.75"></text>
			<line style="stroke: gray; stroke-width: 2" x1="70.7303370786517" x2="70.7303370786517" y1="565" y2="569.375" />
			<text transform="rotate(90,70.7303370786517,573.75)" x="70.7303370786517" y="573.75">6</text>
			<text transform="rotate(90,73.7078651685393,573.75)" x="73.7078651685393" y="573.75"></text>
			<line style="stroke: gray; stroke-width: 2" x1="88.5955056179775" x2="88.5955056179775" y1="565" y2="569.375" />
			<text transform="rotate(90,88.5955056179775,573.75)" x="88.5955056179775" y="573.75">9</text>
			<text transform="rotate(90,91.5730337078652,573.75)" x="91.5730337078652" y="573.75"></text>
			<line style="stroke: gray; stroke-width: 2" x1="106.460674157303" x2="106.460674157303" y1="565" y2="569.375" />
			<text transform="rotate(90,106.460674157303,573.75)" x="106.460674157303" y="573.75">12</text>
			<text transform="rotate(90,109.438202247191,573.75)" x="109.438202247191" y="573.75"></text>
			<line style="stroke: gray; stroke-width: 2" x1="124.325842696629" x2="124.325842696629" y1="565" y2="569.375" />
			<text transform="rotate(90,124.325842696629,573.75)" x="124.325842696629" y="573.75">15</text>
			<text transform="rotate(90,127.303370786517,573.75)" x="127.303370786517" y="573.75"></text>
			<line style="stroke: gray; stroke-width: 2" x1="142.191011235955" x2="142.191011235955" y1="565" y2="569.375" />
			<text transform="rotate(90,142.191011235955,573.75)" x="142.191011235955" y="573.75">18</text>
			<text transform="rotate(90,145.168539325843,573.75)" x="145.168539325843" y="573.75"></text>
			<line style="stroke: gray; stroke-width: 2" x1="160.056179775281" x2="160.056179775281" y1="565" y2="569.375" />
			<text transform="rotate(90,160.056179775281,573.75)" x="160.056179775281" y="573.75">21</text>
			<text transform="rotate(90,163.033707865169,573.75)" x="163.033707865169" y="573.75"></text>
			<line style="stroke: gray; stroke-width: 2" x1="177.921348314607" x2="177.921348314607" y1="565" y2="569.375" />
			<text transform="rotate(90,177.921348314607,573.75)" x="177.921348314607" y="573.75">24</text>
			<text transform="rotate(90,180.898876404494,573.75)" x="180.898876404494" y="573.75"></text>
			<line style="stroke: gray; stroke-width: 2" x1="195.786516853933" x2="195.786516853933" y1="565" y2="569.375" />
			<text transform="rotate(90,195.786516853933,573.75)" x="195.786516853933" y="573.75">27</text>
			<text transform="rotate(90,198.76404494382,573.75)" x="198.76404494382" y="573.75"></text>
			<line style="stroke: gray; stroke-width: 2" x1="213.651685393258" x2="213.651685393258" y1="565" y2="569.375" />
			<text transform="rotate(90,213.651685393258,573.75)" x="213.651685393258" y="573.75">30</text>
			<text transform="rotate(90,216.629213483146,573.75)" x="216.629213483146" y="573.75"></text>
			<line style="stroke: gray; stroke-width: 2" x1="231.516853932584" x2="231.516853932584" y1="565" y2="569.375" />
			<text transform="rotate(90,231.516853932584,573.75)" x="231.516853932584" y="573.75">33</text>
			<text transform="rotate(90,234.494382022472,573.75)" x="234.494382022472" y="573.75"></text>
			<line style="stroke: gray; stroke-width: 2" x1="249.38202247191" x2="249.38202247191" y1="565" y2="569.375" />
			<text transform="rotate(90,249.38202247191,573.75)" x="249.38202247191" y="573.75">36</text>
			<text transform="rotate(90,252.359550561798,573.75)" x="252.359550561798" y="573.75"></text>
			<line style="stroke: gray; stroke-width: 2" x1="267.247191011236" x2="267.247191011236" y1="565" y2="569.375" />
			<text transform="rotate(90,267.247191011236,573.75)" x="267.247191011236" y="573.75">39</text>
			<text transform="rotate(90,270.224719101124,573.75)" x="270.224719101124" y="573.75"></text>
			<line style="stroke: gray; stroke-width: 2" x1="285.112359550562" x2="285.112359550562" y1="565" y2="569.375" />
			<text transform="rotate(90,285.112359550562,573.75)" x="285.112359550562" y="573.75">42</text>
			<text transform="rotate(90,288.089887640449,573.75)" x="288.089887640449" y="573.75"></text>
			<line style="stroke: gray; stroke-width: 2" x1="302.977528089888" x2="302.977528089888" y1="565" y2="569.375" />
			<text transform="rotate(90,302.977528089888,573.75)" x="302.977528089888" y="573.75">45</text>
			<text transform="rotate(90,305.955056179775,573.75)" x="305.955056179775" y="573.75"></text>
			<line style="stroke: gray; stroke-width: 2" x1="320.842696629213" x2="320.842696629213" y1="565" y2="569.375" />
			<text transform="rotate(90,320.842696629213,573.75)" x="320.842696629213" y="573.75">48</text>
			<text transform="rotate(90,323.820224719101,573.75)" x="323.820224719101" y="573.75"></text>
			<line style="stroke: gray; stroke-width: 2" x1="338.707865168539" x2="338.707865168539" y1="565" y2="569.375" />
			<text transform="rotate(90,338.707865168539,573.75)" x="338.707865168539" y="573.75">51</text>
			<text transform="rotate(90,341.685393258427,573.75)" x="341.685393258427" y="573.75"></text>
			<line style="stroke: gray; stroke-width: 2" x1="356.573033707865" x2="356.573033707865" y1="565" y2="569.375" />
			<text transform="rotate(90,356.573033707865,573.75)" x="356.573033707865" y="573.75">54</text>
			<text transform="rotate(90,359.550561797753,573.75)" x="359.550561797753" y="573.75"></text>
			<line style="stroke: gray; stroke-width: 2" x1="374.438202247191" x2="374.438202247191" y1="565" y2="569.375" />
			<text transform="rotate(90,374.438202247191,573.75)" x="374.438202247191" y="573.75">57</text>
			<text transform="rotate(90,377.415730337079,573.75)" x="377.415730337079" y="573.75"></text>
			<line style="stroke: gray; stroke-width: 2" x1="392.303370786517" x2="392.303370786517" y1="565" y2="569.375" />
			<text transform="rotate(90,392.303370786517,573.75)" x="392.303370786517" y="573.75">60</text>
			<text transform="rotate(90,395.280898876404,573.75)" x="395.280898876404" y="573.75"></text>
			<line style="stroke: gray; stroke-width: 2" x1="410.168539325843" x2="410.168539325843" y1="565" y2="569.375" />
			<text transform="rotate(90,410.168539325843,573.75)" x="410.168539325843" y="573.75">63</text>
			<text transform="rotate(90,413.14606741573,573.75)" x="413.14606741573" y="573.75"></text>
			<line style="stroke: gray; stroke-width: 2" x1="428.033707865169" x2="428.033707865169" y1="565" y2="569.375" />
			<text transform="rotate(90,428.033707865169,573.75)" x="428.033707865169" y="573.75">66</text>
			<text transform="rotate(90,431.011235955056,573.75)" x="431.011235955056" y="573.75"></text>
			<line style="stroke: gray; stroke-width: 2" x1="445.898876404494" x2="445.898876404494" y1="565" y2="569.375" />
			<text transform="rotate(90,445.898876404494,573.75)" x="445.898876404494" y="573.75">69</text>
			<text transform="rotate(90,448.876404494382,573.75)" x="448.876404494382" y="573.75"></text>
			<line style="stroke: gray; stroke-width: 2" x1="463.76404494382" x2="463.76404494382" y1="565" y2="569.375" />
			<text transform="rotate(90,463.76404494382,573.75)" x="463.76404494382" y="573.75">72</text>
			<text transform="rotate(90,466.741573033708,573.75)" x="466.741573033708" y="573.75"></text>
			<line style="stroke: gray; stroke-width: 2" x1="481.629213483146" x2="481.629213483146" y1="565" y2="569.375" />
			<text transform="rotate(90,481.629213483146,573.75)" x="481.629213483146" y="573.75">75</text>
			<text transform="rotate(90,484.606741573034,573.75)" x="484.606741573034" y="573.75"></text>
			<line style="stroke: gray; stroke-width: 2" x1="499.494382022472" x2="499.494382022472" y1="565" y2="569.375" />
			<text transform="rotate(90,499.494382022472,573.75)" x="499.494382022472" y="573.75">78</text>
			<text transform="rotate(90,502.47191011236,573.75)" x="502.47191011236" y="573.75"></text>
			<line style="stroke: gray; stroke-width: 2" x1="517.359550561798" x2="517.359550561798" y1="565" y2="569.375" />
			<text transform="rotate(90,517.359550561798,573.75)" x="517.359550561798" y="573.75">81</text>
			<text transform="rotate(90,520.337078651685,573.75)" x="520.337078651685" y="573.75"></text>
			<line style="stroke: gray; stroke-width: 2" x1="535.224719101124" x2="535.224719101124" y1="565" y2="569.375" />
			<text transform="rotate(90,535.224719101124,573.75)" x="535.224719101124" y="573.75">84</text>
			<text transform="rotate(90,538.202247191011,573.75)" x="538.202247191011" y="573.75"></text>
			<line style="stroke: gray; stroke-width: 2" x1="553.089887640449" x2="553.089887640449" y1="565" y2="569.375" />
			<text transform="rotate(90,553.089887640449,573.75)" x="553.089887640449" y="573.75">87</text>
			<text transform="rotate(90,556.067415730337,573.75)" x="556.067415730337" y="573.75"></text>
			<line style="stroke: gray; stroke-width: 2" x1="35" x2="30.625" y1="565" y2="565" />
			<text x="0" y="565">2</text>
			<text x="43.9325842696629" y="565"></text>
			<line style="stroke: gray; stroke-width: 2" x1="35" x2="30.625" y1="545.37037037037" y2="545.37037037037" />
			<text x="0" y="545.37037037037">3</text>
			<text x="49.8876404494382" y="545.37037037037"></text>
			<line style="stroke: gray; stroke-width: 2" x1="35" x2="30.625" y1="525.740740740741" y2="525.740740740741" />
			<text x="0" y="525.740740740741">4</text>
			<text x="55.8426966292135" y="525.740740740741"></text>
			<line style="stroke: gray; stroke-width: 2" x1="35" x2="30.625" y1="506.111111111111" y2="506.111111111111" />
			<text x="0" y="506.111111111111">5</text>
			<text x="61.7977528089888" y="506.111111111111"></text>
			<line style="stroke: gray; stroke-width: 2" x1="35" x2="30.625" y1="486.481481481481" y2="486.481481481481" />
			<text x="0" y="486.481481481481">6</text>
			<text x="67.752808988764" y="486.481481481481"></text>
			<line style="stroke: gray; stroke-width: 2" x1="35" x2="30.625" y1="466.851851851852" y2="466.851851851852" />
			<text x="0" y="466.851851851852">7</text>
			<text x="73.7078651685393" y="466.851851851852"></text>
			<line style="stroke: gray; stroke-width: 2" x1="35" x2="30.625" y1="447.222222222222" y2="447.222222222222" />
			<text x="0" y="447.222222222222">8</text>
			<text x="79.6629213483146" y="447.222222222222"></text>
			<line style="stroke: gray; stroke-width: 2" x1="35" x2="30.625" y1="427.592592592593" y2="427.592592592593" />
			<text x="0" y="427.592592592593">9</text>
			<text x="85.6179775280899" y="427.592592592593"></text>
			<line style="stroke: gray; stroke-width: 2" x1="35" x2="30.625" y1="407.962962962963" y2="407.962962962963" />
			<text x="0" y="407.962962962963">10</text>
			<text x="91.5730337078652" y="407.962962962963"></text>
			<line style="stroke: gray; stroke-width: 2" x1="35" x2="30.625" y1="388.333333333333" y2="388.333333333333" />
			<text x="0" y="388.333333333333">11</text>
			<text x="97.5280898876404" y="388.333333333333"></text>
			<line style="stroke: gray; stroke-width: 2" x1="35" x2="30.625" y1="368.703703703704" y2="368.703703703704" />
			<text x="0" y="368.703703703704">12</text>
			<text x="103.483146067416" y="368.703703703704"></text>
			<line style="stroke: gray; stroke-width: 2" x1="35" x2="30.625" y1="349.074074074074" y2="349.074074074074" />
			<text x="0" y="349.074074074074">13</text>
			<text x="109.438202247191" y="349.074074074074"></text>
			<line style="stroke: gray; stroke-width: 2" x1="35" x2="30.625" y1="329.444444444444" y2="329.444444444444" />
			<text x="0" y="329.444444444444">14</text>
			<text x="115.393258426966" y="329.444444444444"></text>
			<line style="stroke: gray; stroke-width: 2" x1="35" x2="30.625" y1="309.814814814815" y2="309.814814814815" />
			<text x="0" y="309.814814814815">15</text>
			<text x="121.348314606742" y="309.814814814815"></text>
			<line style="stroke: gray; stroke-width: 2" x1="35" x2="30.625" y1="290.185185185185" y2="290.185185185185" />
			<text x="0" y="290.185185185185">16</text>
			<text x="127.303370786517" y="290.185185185185"></text>
			<line style="stroke: gray; stroke-width: 2" x1="35" x2="30.625" y1="270.555555555556" y2="270.555555555556" />
			<text x="0" y="270.555555555556">17</text>
			<text x="133.258426966292" y="270.555555555556"></text>
			<line style="stroke: gray; stroke-width: 2" x1="35" x2="30.625" y1="250.925925925926" y2="250.925925925926" />
			<text x="0" y="250.925925925926">18</text>
			<text x="139.213483146067" y="250.925925925926"></text>
			<line style="stroke: gray; stroke-width: 2" x1="35" x2="30.625" y1="231.296296296296" y2="231.296296296296" />
			<text x="0" y="231.296296296296">19</text>
			<text x="145.168539325843" y="231.296296296296"></text>
			<line style="stroke: gray; stroke-width: 2" x1="35" x2="30.625" y1="211.666666666667" y2="211.666666666667" />
			<text x="0" y="211.666666666667">20</text>
			<text x="151.123595505618" y="211.666666666667"></text>
			<line style="stroke: gray; stroke-width: 2" x1="35" x2="30.625" y1="192.037037037037" y2="192.037037037037" />
			<text x="0" y="192.037037037037">21</text>
			<text x="157.078651685393" y="192.037037037037"></text>
			<line style="stroke: gray; stroke-width: 2" x1="35" x2="30.625" y1="172.407407407407" y2="172.407407407407" />
			<text x="0" y="172.407407407407">22</text>
			<text x="163.033707865169" y="172.407407407407"></text>
			<line style="stroke: gray; stroke-width: 2" x1="35" x2="30.625" y1="152.777777777778" y2="152.777777777778" />
			<text x="0" y="152.777777777778">23</text>
			<text x="168.988764044944" y="152.777777777778"></text>
			<line style="stroke: gray; stroke-width: 2" x1="35" x2="30.625" y1="133.148148148148" y2="133.148148148148" />
			<text x="0" y="133.148148148148">24</text>
			<text x="174.943820224719" y="133.148148148148"></text>
			<line style="stroke: gray; stroke-width: 2" x1="35" x2="30.625" y1="113.518518518519" y2="113.518518518519" />
			<text x="0" y="113.518518518519">25</text>
			<text x="180.898876404494" y="113.518518518519"></text>
			<line style="stroke: gray; stroke-width: 2" x1="35" x2="30.625" y1="93.8888888888889" y2="93.8888888888889" />
			<text x="0" y="93.8888888888889">26</text>
			<text x="186.85393258427" y="93.8888888888889"></text>
			<line style="stroke: gray; stroke-width: 2" x1="35" x2="30.625" y1="74.2592592592592" y2="74.2592592592592" />
			<text x="0" y="74.2592592592592">27</text>
			<text x="192.808988764045" y="74.2592592592592"></text>
			<line style="stroke: gray; stroke-width: 2" x1="35" x2="30.625" y1="54.6296296296296" y2="54.6296296296296" />
			<text x="0" y="54.6296296296296">28</text>
			<text x="198.76404494382" y="54.6296296296296"></text>
			<line style="stroke: gray; stroke-width: 2" x1="35" x2="30.625" y1="35" y2="35" />
			<text x="0" y="35">29</text>
			<text x="204.719101123595" y="35"></text>
		</g>
	</g>
	<!-- 
	Generated using the Perl SVG Module V2.51
	by Ronan Oger
	Info: http://www.roitsystems.com/
 -->
</svg>
