<?xml version="1.0" encoding="UTF-8" standalone="yes"?>
<!DOCTYPE svg PUBLIC "-//W3C//DTD SVG 1.0//EN" "http://www.w3.org/TR/2001/REC-SVG-20010904/DTD/svg10.dtd">
<svg height="600" width="600" xmlns="http://www.w3.org/2000/svg" xmlns:svg="http://www.w3.org/2000/svg" xmlns:xlink="http://www.w3.org/1999/xlink">
	<g id="n7884982">
		<g id="scatter9876754" />
		<g id="axis0054433" />
		<g id="scattern1615632">
			<circle cx="35" cy="565" r="3" style="fill: red; fill-opacity: 0.5; stroke: red" />
			<circle cx="93.8888888888889" cy="543.8" r="3" style="fill: red; fill-opacity: 0.5; stroke: red" />
			<circle cx="152.777777777778" cy="501.4" r="3" style="fill: red; fill-opacity: 0.5; stroke: red" />
			<circle cx="211.666666666667" cy="459" r="3" style="fill: red; fill-opacity: 0.5; stroke: red" />
			<circle cx="270.555555555556" cy="374.2" r="3" style="fill: red; fill-opacity: 0.5; stroke: red" />
			<circle cx="329.444444444444" cy="331.8" r="3" style="fill: red; fill-opacity: 0.5; stroke: red" />
			<circle cx="388.333333333333" cy="247" r="3" style="fill: red; fill-opacity: 0.5; stroke: red" />
			<circle cx="447.222222222222" cy="204.6" r="3" style="fill: red; fill-opacity: 0.5; stroke: red" />
			<circle cx="506.111111111111" cy="119.8" r="3" style="fill: red; fill-opacity: 0.5; stroke: red" />
			<circle cx="565" cy="35" r="3" style="fill: red; fill-opacity: 0.5; stroke: red" />
		</g>
		<g id="axisn5525087">
			<line style="z_absolute_ticks: 1; stroke: gray; stroke-width: 2; z_tick_labels: ARRAY(0x100958c08)" x1="35" x2="565" y1="565" y2="565" />
			<line style="z_absolute_ticks: 1; stroke: gray; stroke-width: 2; z_tick_labels: ARRAY(0x100958c08)" x1="35" x2="35" y1="35" y2="565" />
			<line style="z_absolute_ticks: 1; stroke: gray; stroke-width: 2; z_tick_labels: ARRAY(0x100958c08)" x1="35" x2="35" y1="565" y2="569.375" />
			<text transform="rotate(90,35,573.75)" x="35" y="573.75">1</text>
			<text transform="rotate(90,64.4444444444444,573.75)" x="64.4444444444444" y="573.75"></text>
			<line style="z_absolute_ticks: 1; stroke: gray; stroke-width: 2; z_tick_labels: ARRAY(0x100958c08)" x1="93.8888888888889" x2="93.8888888888889" y1="565" y2="569.375" />
			<text transform="rotate(90,93.8888888888889,573.75)" x="93.8888888888889" y="573.75">2</text>
			<text transform="rotate(90,123.333333333333,573.75)" x="123.333333333333" y="573.75"></text>
			<line style="z_absolute_ticks: 1; stroke: gray; stroke-width: 2; z_tick_labels: ARRAY(0x100958c08)" x1="152.777777777778" x2="152.777777777778" y1="565" y2="569.375" />
			<text transform="rotate(90,152.777777777778,573.75)" x="152.777777777778" y="573.75">3</text>
			<text transform="rotate(90,182.222222222222,573.75)" x="182.222222222222" y="573.75"></text>
			<line style="z_absolute_ticks: 1; stroke: gray; stroke-width: 2; z_tick_labels: ARRAY(0x100958c08)" x1="211.666666666667" x2="211.666666666667" y1="565" y2="569.375" />
			<text transform="rotate(90,211.666666666667,573.75)" x="211.666666666667" y="573.75">4</text>
			<text transform="rotate(90,241.111111111111,573.75)" x="241.111111111111" y="573.75"></text>
			<line style="z_absolute_ticks: 1; stroke: gray; stroke-width: 2; z_tick_labels: ARRAY(0x100958c08)" x1="270.555555555556" x2="270.555555555556" y1="565" y2="569.375" />
			<text transform="rotate(90,270.555555555556,573.75)" x="270.555555555556" y="573.75">5</text>
			<text transform="rotate(90,300,573.75)" x="300" y="573.75"></text>
			<line style="z_absolute_ticks: 1; stroke: gray; stroke-width: 2; z_tick_labels: ARRAY(0x100958c08)" x1="329.444444444444" x2="329.444444444444" y1="565" y2="569.375" />
			<text transform="rotate(90,329.444444444444,573.75)" x="329.444444444444" y="573.75">6</text>
			<text transform="rotate(90,358.888888888889,573.75)" x="358.888888888889" y="573.75"></text>
			<line style="z_absolute_ticks: 1; stroke: gray; stroke-width: 2; z_tick_labels: ARRAY(0x100958c08)" x1="388.333333333333" x2="388.333333333333" y1="565" y2="569.375" />
			<text transform="rotate(90,388.333333333333,573.75)" x="388.333333333333" y="573.75">7</text>
			<text transform="rotate(90,417.777777777778,573.75)" x="417.777777777778" y="573.75"></text>
			<line style="z_absolute_ticks: 1; stroke: gray; stroke-width: 2; z_tick_labels: ARRAY(0x100958c08)" x1="447.222222222222" x2="447.222222222222" y1="565" y2="569.375" />
			<text transform="rotate(90,447.222222222222,573.75)" x="447.222222222222" y="573.75">8</text>
			<text transform="rotate(90,476.666666666667,573.75)" x="476.666666666667" y="573.75"></text>
			<line style="z_absolute_ticks: 1; stroke: gray; stroke-width: 2; z_tick_labels: ARRAY(0x100958c08)" x1="506.111111111111" x2="506.111111111111" y1="565" y2="569.375" />
			<text transform="rotate(90,506.111111111111,573.75)" x="506.111111111111" y="573.75">9</text>
			<text transform="rotate(90,535.555555555556,573.75)" x="535.555555555556" y="573.75"></text>
			<line style="z_absolute_ticks: 1; stroke: gray; stroke-width: 2; z_tick_labels: ARRAY(0x100958c08)" x1="565" x2="565" y1="565" y2="569.375" />
			<text transform="rotate(90,565,573.75)" x="565" y="573.75">10</text>
			<text transform="rotate(90,594.444444444444,573.75)" x="594.444444444444" y="573.75"></text>
			<line style="z_absolute_ticks: 1; stroke: gray; stroke-width: 2; z_tick_labels: ARRAY(0x100958c08)" x1="35" x2="30.625" y1="565" y2="565" />
			<text x="0" y="565">2</text>
			<text x="123.333333333333" y="565"></text>
			<line style="z_absolute_ticks: 1; stroke: gray; stroke-width: 2; z_tick_labels: ARRAY(0x100958c08)" x1="35" x2="30.625" y1="543.8" y2="543.8" />
			<text x="0" y="543.8">3</text>
			<text x="182.222222222222" y="543.8"></text>
			<line style="z_absolute_ticks: 1; stroke: gray; stroke-width: 2; z_tick_labels: ARRAY(0x100958c08)" x1="35" x2="30.625" y1="522.6" y2="522.6" />
			<text x="0" y="522.6">4</text>
			<text x="241.111111111111" y="522.6"></text>
			<line style="z_absolute_ticks: 1; stroke: gray; stroke-width: 2; z_tick_labels: ARRAY(0x100958c08)" x1="35" x2="30.625" y1="501.4" y2="501.4" />
			<text x="0" y="501.4">5</text>
			<text x="300" y="501.4"></text>
			<line style="z_absolute_ticks: 1; stroke: gray; stroke-width: 2; z_tick_labels: ARRAY(0x100958c08)" x1="35" x2="30.625" y1="480.2" y2="480.2" />
			<text x="0" y="480.2">6</text>
			<text x="358.888888888889" y="480.2"></text>
			<line style="z_absolute_ticks: 1; stroke: gray; stroke-width: 2; z_tick_labels: ARRAY(0x100958c08)" x1="35" x2="30.625" y1="459" y2="459" />
			<text x="0" y="459">7</text>
			<text x="417.777777777778" y="459"></text>
			<line style="z_absolute_ticks: 1; stroke: gray; stroke-width: 2; z_tick_labels: ARRAY(0x100958c08)" x1="35" x2="30.625" y1="437.8" y2="437.8" />
			<text x="0" y="437.8">8</text>
			<text x="476.666666666667" y="437.8"></text>
			<line style="z_absolute_ticks: 1; stroke: gray; stroke-width: 2; z_tick_labels: ARRAY(0x100958c08)" x1="35" x2="30.625" y1="416.6" y2="416.6" />
			<text x="0" y="416.6">9</text>
			<text x="535.555555555556" y="416.6"></text>
			<line style="z_absolute_ticks: 1; stroke: gray; stroke-width: 2; z_tick_labels: ARRAY(0x100958c08)" x1="35" x2="30.625" y1="395.4" y2="395.4" />
			<text x="0" y="395.4">10</text>
			<text x="594.444444444444" y="395.4"></text>
			<line style="z_absolute_ticks: 1; stroke: gray; stroke-width: 2; z_tick_labels: ARRAY(0x100958c08)" x1="35" x2="30.625" y1="374.2" y2="374.2" />
			<text x="0" y="374.2">11</text>
			<text x="653.333333333333" y="374.2"></text>
			<line style="z_absolute_ticks: 1; stroke: gray; stroke-width: 2; z_tick_labels: ARRAY(0x100958c08)" x1="35" x2="30.625" y1="353" y2="353" />
			<text x="0" y="353">12</text>
			<text x="712.222222222222" y="353"></text>
			<line style="z_absolute_ticks: 1; stroke: gray; stroke-width: 2; z_tick_labels: ARRAY(0x100958c08)" x1="35" x2="30.625" y1="331.8" y2="331.8" />
			<text x="0" y="331.8">13</text>
			<text x="771.111111111111" y="331.8"></text>
			<line style="z_absolute_ticks: 1; stroke: gray; stroke-width: 2; z_tick_labels: ARRAY(0x100958c08)" x1="35" x2="30.625" y1="310.6" y2="310.6" />
			<text x="0" y="310.6">14</text>
			<text x="830" y="310.6"></text>
			<line style="z_absolute_ticks: 1; stroke: gray; stroke-width: 2; z_tick_labels: ARRAY(0x100958c08)" x1="35" x2="30.625" y1="289.4" y2="289.4" />
			<text x="0" y="289.4">15</text>
			<text x="888.888888888889" y="289.4"></text>
			<line style="z_absolute_ticks: 1; stroke: gray; stroke-width: 2; z_tick_labels: ARRAY(0x100958c08)" x1="35" x2="30.625" y1="268.2" y2="268.2" />
			<text x="0" y="268.2">16</text>
			<text x="947.777777777778" y="268.2"></text>
			<line style="z_absolute_ticks: 1; stroke: gray; stroke-width: 2; z_tick_labels: ARRAY(0x100958c08)" x1="35" x2="30.625" y1="247" y2="247" />
			<text x="0" y="247">17</text>
			<text x="1006.66666666667" y="247"></text>
			<line style="z_absolute_ticks: 1; stroke: gray; stroke-width: 2; z_tick_labels: ARRAY(0x100958c08)" x1="35" x2="30.625" y1="225.8" y2="225.8" />
			<text x="0" y="225.8">18</text>
			<text x="1065.55555555556" y="225.8"></text>
			<line style="z_absolute_ticks: 1; stroke: gray; stroke-width: 2; z_tick_labels: ARRAY(0x100958c08)" x1="35" x2="30.625" y1="204.6" y2="204.6" />
			<text x="0" y="204.6">19</text>
			<text x="1124.44444444444" y="204.6"></text>
			<line style="z_absolute_ticks: 1; stroke: gray; stroke-width: 2; z_tick_labels: ARRAY(0x100958c08)" x1="35" x2="30.625" y1="183.4" y2="183.4" />
			<text x="0" y="183.4">20</text>
			<text x="1183.33333333333" y="183.4"></text>
			<line style="z_absolute_ticks: 1; stroke: gray; stroke-width: 2; z_tick_labels: ARRAY(0x100958c08)" x1="35" x2="30.625" y1="162.2" y2="162.2" />
			<text x="0" y="162.2">21</text>
			<text x="1242.22222222222" y="162.2"></text>
			<line style="z_absolute_ticks: 1; stroke: gray; stroke-width: 2; z_tick_labels: ARRAY(0x100958c08)" x1="35" x2="30.625" y1="141" y2="141" />
			<text x="0" y="141">22</text>
			<text x="1301.11111111111" y="141"></text>
			<line style="z_absolute_ticks: 1; stroke: gray; stroke-width: 2; z_tick_labels: ARRAY(0x100958c08)" x1="35" x2="30.625" y1="119.8" y2="119.8" />
			<text x="0" y="119.8">23</text>
			<text x="1360" y="119.8"></text>
			<line style="z_absolute_ticks: 1; stroke: gray; stroke-width: 2; z_tick_labels: ARRAY(0x100958c08)" x1="35" x2="30.625" y1="98.6" y2="98.6" />
			<text x="0" y="98.6">24</text>
			<text x="1418.88888888889" y="98.6"></text>
			<line style="z_absolute_ticks: 1; stroke: gray; stroke-width: 2; z_tick_labels: ARRAY(0x100958c08)" x1="35" x2="30.625" y1="77.4" y2="77.4" />
			<text x="0" y="77.4">25</text>
			<text x="1477.77777777778" y="77.4"></text>
			<line style="z_absolute_ticks: 1; stroke: gray; stroke-width: 2; z_tick_labels: ARRAY(0x100958c08)" x1="35" x2="30.625" y1="56.2" y2="56.2" />
			<text x="0" y="56.2">26</text>
			<text x="1536.66666666667" y="56.2"></text>
			<line style="z_absolute_ticks: 1; stroke: gray; stroke-width: 2; z_tick_labels: ARRAY(0x100958c08)" x1="35" x2="30.625" y1="35" y2="35" />
			<text x="0" y="35">27</text>
			<text x="1595.55555555556" y="35"></text>
		</g>
	</g>
	<!-- 
	Generated using the Perl SVG Module V2.51
	by Ronan Oger
	Info: http://www.roitsystems.com/
 -->
</svg>
