<?xml version="1.0" encoding="UTF-8" standalone="yes"?>
<!DOCTYPE svg PUBLIC "-//W3C//DTD SVG 1.0//EN" "http://www.w3.org/TR/2001/REC-SVG-20010904/DTD/svg10.dtd">
<svg height="600" width="600" xmlns="http://www.w3.org/2000/svg" xmlns:svg="http://www.w3.org/2000/svg" xmlns:xlink="http://www.w3.org/1999/xlink">
	<g id="n0833919">
		<g id="scatter0491666" />
		<g id="axis7805335" />
		<g id="scattern6264584">
			<circle cx="35" cy="565" r="3" style="fill: red; fill-opacity: 0.5; stroke: red" />
			<circle cx="93.8888888888889" cy="545.37037037037" r="3" style="fill: red; fill-opacity: 0.5; stroke: red" />
			<circle cx="152.777777777778" cy="506.111111111111" r="3" style="fill: red; fill-opacity: 0.5; stroke: red" />
			<circle cx="211.666666666667" cy="466.851851851852" r="3" style="fill: red; fill-opacity: 0.5; stroke: red" />
			<circle cx="270.555555555556" cy="388.333333333333" r="3" style="fill: red; fill-opacity: 0.5; stroke: red" />
			<circle cx="329.444444444444" cy="349.074074074074" r="3" style="fill: red; fill-opacity: 0.5; stroke: red" />
			<circle cx="388.333333333333" cy="270.555555555556" r="3" style="fill: red; fill-opacity: 0.5; stroke: red" />
			<circle cx="447.222222222222" cy="231.296296296296" r="3" style="fill: red; fill-opacity: 0.5; stroke: red" />
			<circle cx="506.111111111111" cy="152.777777777778" r="3" style="fill: red; fill-opacity: 0.5; stroke: red" />
			<circle cx="565" cy="35" r="3" style="fill: red; fill-opacity: 0.5; stroke: red" />
		</g>
		<g id="axisn3320634">
			<line style="stroke: gray; stroke-width: 2" x1="35" x2="565" y1="565" y2="565" />
			<line style="stroke: gray; stroke-width: 2" x1="35" x2="35" y1="35" y2="565" />
			<line style="stroke: gray; stroke-width: 2" x1="35" x2="35" y1="565" y2="569.375" />
			<text transform="rotate(90,35,573.75)" x="35" y="573.75">1</text>
			<text transform="rotate(90,64.4444444444444,573.75)" x="64.4444444444444" y="573.75"></text>
			<line style="stroke: gray; stroke-width: 2" x1="93.8888888888889" x2="93.8888888888889" y1="565" y2="569.375" />
			<text transform="rotate(90,93.8888888888889,573.75)" x="93.8888888888889" y="573.75">2</text>
			<text transform="rotate(90,123.333333333333,573.75)" x="123.333333333333" y="573.75"></text>
			<line style="stroke: gray; stroke-width: 2" x1="152.777777777778" x2="152.777777777778" y1="565" y2="569.375" />
			<text transform="rotate(90,152.777777777778,573.75)" x="152.777777777778" y="573.75">3</text>
			<text transform="rotate(90,182.222222222222,573.75)" x="182.222222222222" y="573.75"></text>
			<line style="stroke: gray; stroke-width: 2" x1="211.666666666667" x2="211.666666666667" y1="565" y2="569.375" />
			<text transform="rotate(90,211.666666666667,573.75)" x="211.666666666667" y="573.75">4</text>
			<text transform="rotate(90,241.111111111111,573.75)" x="241.111111111111" y="573.75"></text>
			<line style="stroke: gray; stroke-width: 2" x1="270.555555555556" x2="270.555555555556" y1="565" y2="569.375" />
			<text transform="rotate(90,270.555555555556,573.75)" x="270.555555555556" y="573.75">5</text>
			<text transform="rotate(90,300,573.75)" x="300" y="573.75"></text>
			<line style="stroke: gray; stroke-width: 2" x1="329.444444444444" x2="329.444444444444" y1="565" y2="569.375" />
			<text transform="rotate(90,329.444444444444,573.75)" x="329.444444444444" y="573.75">6</text>
			<text transform="rotate(90,358.888888888889,573.75)" x="358.888888888889" y="573.75"></text>
			<line style="stroke: gray; stroke-width: 2" x1="388.333333333333" x2="388.333333333333" y1="565" y2="569.375" />
			<text transform="rotate(90,388.333333333333,573.75)" x="388.333333333333" y="573.75">7</text>
			<text transform="rotate(90,417.777777777778,573.75)" x="417.777777777778" y="573.75"></text>
			<line style="stroke: gray; stroke-width: 2" x1="447.222222222222" x2="447.222222222222" y1="565" y2="569.375" />
			<text transform="rotate(90,447.222222222222,573.75)" x="447.222222222222" y="573.75">8</text>
			<text transform="rotate(90,476.666666666667,573.75)" x="476.666666666667" y="573.75"></text>
			<line style="stroke: gray; stroke-width: 2" x1="506.111111111111" x2="506.111111111111" y1="565" y2="569.375" />
			<text transform="rotate(90,506.111111111111,573.75)" x="506.111111111111" y="573.75">9</text>
			<text transform="rotate(90,535.555555555556,573.75)" x="535.555555555556" y="573.75"></text>
			<line style="stroke: gray; stroke-width: 2" x1="565" x2="565" y1="565" y2="569.375" />
			<text transform="rotate(90,565,573.75)" x="565" y="573.75">10</text>
			<text transform="rotate(90,594.444444444444,573.75)" x="594.444444444444" y="573.75"></text>
			<line style="stroke: gray; stroke-width: 2" x1="35" x2="30.625" y1="565" y2="565" />
			<text x="0" y="565">2</text>
			<text x="123.333333333333" y="565"></text>
			<line style="stroke: gray; stroke-width: 2" x1="35" x2="30.625" y1="545.37037037037" y2="545.37037037037" />
			<text x="0" y="545.37037037037">3</text>
			<text x="182.222222222222" y="545.37037037037"></text>
			<line style="stroke: gray; stroke-width: 2" x1="35" x2="30.625" y1="525.740740740741" y2="525.740740740741" />
			<text x="0" y="525.740740740741">4</text>
			<text x="241.111111111111" y="525.740740740741"></text>
			<line style="stroke: gray; stroke-width: 2" x1="35" x2="30.625" y1="506.111111111111" y2="506.111111111111" />
			<text x="0" y="506.111111111111">5</text>
			<text x="300" y="506.111111111111"></text>
			<line style="stroke: gray; stroke-width: 2" x1="35" x2="30.625" y1="486.481481481481" y2="486.481481481481" />
			<text x="0" y="486.481481481481">6</text>
			<text x="358.888888888889" y="486.481481481481"></text>
			<line style="stroke: gray; stroke-width: 2" x1="35" x2="30.625" y1="466.851851851852" y2="466.851851851852" />
			<text x="0" y="466.851851851852">7</text>
			<text x="417.777777777778" y="466.851851851852"></text>
			<line style="stroke: gray; stroke-width: 2" x1="35" x2="30.625" y1="447.222222222222" y2="447.222222222222" />
			<text x="0" y="447.222222222222">8</text>
			<text x="476.666666666667" y="447.222222222222"></text>
			<line style="stroke: gray; stroke-width: 2" x1="35" x2="30.625" y1="427.592592592593" y2="427.592592592593" />
			<text x="0" y="427.592592592593">9</text>
			<text x="535.555555555556" y="427.592592592593"></text>
			<line style="stroke: gray; stroke-width: 2" x1="35" x2="30.625" y1="407.962962962963" y2="407.962962962963" />
			<text x="0" y="407.962962962963">10</text>
			<text x="594.444444444444" y="407.962962962963"></text>
			<line style="stroke: gray; stroke-width: 2" x1="35" x2="30.625" y1="388.333333333333" y2="388.333333333333" />
			<text x="0" y="388.333333333333">11</text>
			<text x="653.333333333333" y="388.333333333333"></text>
			<line style="stroke: gray; stroke-width: 2" x1="35" x2="30.625" y1="368.703703703704" y2="368.703703703704" />
			<text x="0" y="368.703703703704">12</text>
			<text x="712.222222222222" y="368.703703703704"></text>
			<line style="stroke: gray; stroke-width: 2" x1="35" x2="30.625" y1="349.074074074074" y2="349.074074074074" />
			<text x="0" y="349.074074074074">13</text>
			<text x="771.111111111111" y="349.074074074074"></text>
			<line style="stroke: gray; stroke-width: 2" x1="35" x2="30.625" y1="329.444444444444" y2="329.444444444444" />
			<text x="0" y="329.444444444444">14</text>
			<text x="830" y="329.444444444444"></text>
			<line style="stroke: gray; stroke-width: 2" x1="35" x2="30.625" y1="309.814814814815" y2="309.814814814815" />
			<text x="0" y="309.814814814815">15</text>
			<text x="888.888888888889" y="309.814814814815"></text>
			<line style="stroke: gray; stroke-width: 2" x1="35" x2="30.625" y1="290.185185185185" y2="290.185185185185" />
			<text x="0" y="290.185185185185">16</text>
			<text x="947.777777777778" y="290.185185185185"></text>
			<line style="stroke: gray; stroke-width: 2" x1="35" x2="30.625" y1="270.555555555556" y2="270.555555555556" />
			<text x="0" y="270.555555555556">17</text>
			<text x="1006.66666666667" y="270.555555555556"></text>
			<line style="stroke: gray; stroke-width: 2" x1="35" x2="30.625" y1="250.925925925926" y2="250.925925925926" />
			<text x="0" y="250.925925925926">18</text>
			<text x="1065.55555555556" y="250.925925925926"></text>
			<line style="stroke: gray; stroke-width: 2" x1="35" x2="30.625" y1="231.296296296296" y2="231.296296296296" />
			<text x="0" y="231.296296296296">19</text>
			<text x="1124.44444444444" y="231.296296296296"></text>
			<line style="stroke: gray; stroke-width: 2" x1="35" x2="30.625" y1="211.666666666667" y2="211.666666666667" />
			<text x="0" y="211.666666666667">20</text>
			<text x="1183.33333333333" y="211.666666666667"></text>
			<line style="stroke: gray; stroke-width: 2" x1="35" x2="30.625" y1="192.037037037037" y2="192.037037037037" />
			<text x="0" y="192.037037037037">21</text>
			<text x="1242.22222222222" y="192.037037037037"></text>
			<line style="stroke: gray; stroke-width: 2" x1="35" x2="30.625" y1="172.407407407407" y2="172.407407407407" />
			<text x="0" y="172.407407407407">22</text>
			<text x="1301.11111111111" y="172.407407407407"></text>
			<line style="stroke: gray; stroke-width: 2" x1="35" x2="30.625" y1="152.777777777778" y2="152.777777777778" />
			<text x="0" y="152.777777777778">23</text>
			<text x="1360" y="152.777777777778"></text>
			<line style="stroke: gray; stroke-width: 2" x1="35" x2="30.625" y1="133.148148148148" y2="133.148148148148" />
			<text x="0" y="133.148148148148">24</text>
			<text x="1418.88888888889" y="133.148148148148"></text>
			<line style="stroke: gray; stroke-width: 2" x1="35" x2="30.625" y1="113.518518518519" y2="113.518518518519" />
			<text x="0" y="113.518518518519">25</text>
			<text x="1477.77777777778" y="113.518518518519"></text>
			<line style="stroke: gray; stroke-width: 2" x1="35" x2="30.625" y1="93.8888888888889" y2="93.8888888888889" />
			<text x="0" y="93.8888888888889">26</text>
			<text x="1536.66666666667" y="93.8888888888889"></text>
			<line style="stroke: gray; stroke-width: 2" x1="35" x2="30.625" y1="74.2592592592592" y2="74.2592592592592" />
			<text x="0" y="74.2592592592592">27</text>
			<text x="1595.55555555556" y="74.2592592592592"></text>
			<line style="stroke: gray; stroke-width: 2" x1="35" x2="30.625" y1="54.6296296296296" y2="54.6296296296296" />
			<text x="0" y="54.6296296296296">28</text>
			<text x="1654.44444444444" y="54.6296296296296"></text>
			<line style="stroke: gray; stroke-width: 2" x1="35" x2="30.625" y1="35" y2="35" />
			<text x="0" y="35">29</text>
			<text x="1713.33333333333" y="35"></text>
		</g>
	</g>
	<!-- 
	Generated using the Perl SVG Module V2.51
	by Ronan Oger
	Info: http://www.roitsystems.com/
 -->
</svg>
